<svg width="31" height="31" viewBox="0 0 31 31" fill="none" xmlns="http://www.w3.org/2000/svg">
<g id="Group 3749">
<rect id="Rectangle 4" width="31" height="31" rx="15.5" fill="#D1E0F7"/>
<path id="Vector" d="M21.4274 18.2621C21.4274 18.2621 21.4256 12.8129 21.425 10.6912C21.4244 10.5139 21.353 10.353 21.2374 10.2374C21.1213 10.1213 20.9603 10.0499 20.7831 10.0493C18.6619 10.0493 13.2158 10.0468 13.2158 10.0468C13.0379 10.0468 12.8782 10.1194 12.7626 10.2374C12.6483 10.353 12.5781 10.5127 12.5787 10.6887C12.5781 11.0427 12.8637 11.3306 13.2152 11.33L19.2367 11.3306L10.3481 20.2192C10.0976 20.4697 10.0976 20.8763 10.3481 21.1267C10.598 21.3766 11.0051 21.3772 11.2556 21.1267L20.1442 12.2381L20.1442 18.2615C20.1436 18.6118 20.4316 18.8961 20.7861 18.8961C20.9615 18.8961 21.1213 18.8259 21.2374 18.7122C21.3548 18.5973 21.4274 18.4375 21.4274 18.2621Z" fill="#144BA6"/>
</g>
</svg>
