<svg width="19" height="19" viewBox="0 0 19 19" fill="none" xmlns="http://www.w3.org/2000/svg">
<g id="iconmonstr-medium-3 1" clip-path="url(#clip0_197_264)">
<path id="Vector" fill-rule="evenodd" clip-rule="evenodd" d="M15.0417 19H3.95833C1.77254 19 0 17.2275 0 15.0417V3.95833C0 1.77254 1.77254 0 3.95833 0H15.0417C17.2283 0 19 1.77254 19 3.95833V15.0417C19 17.2275 17.229 18.9992 15.0417 19ZM15.8096 14.5279V14.3149L14.8224 13.3459C14.7353 13.2794 14.6917 13.1702 14.71 13.0617V5.93829C14.6917 5.82983 14.7353 5.72058 14.8224 5.65408L15.8333 4.68508V4.47213H12.3326L9.83725 10.697L6.99833 4.47213H3.32658V4.68508L4.50933 6.10929C4.62492 6.21458 4.68429 6.36817 4.66846 6.52333V12.122C4.70329 12.3239 4.63917 12.5305 4.49746 12.6778L3.16667 14.2912V14.5041H6.93975V14.2912L5.60896 12.6778C5.46567 12.5305 5.39838 12.3255 5.42529 12.122V7.28017L8.73683 14.5041H9.12158L11.966 7.28017V13.038C11.966 13.1915 11.966 13.2216 11.8655 13.3222L10.8427 14.3149V14.5279H15.8096Z" fill="#222222"/>
</g>
<defs>
<clipPath id="clip0_197_264">
<rect width="19" height="19" fill="white"/>
</clipPath>
</defs>
</svg>
