<svg width="18" height="19" viewBox="0 0 18 19" fill="none" xmlns="http://www.w3.org/2000/svg">
<g id="iconmonstr-instagram-13 1" clip-path="url(#clip0_197_262)">
<path id="Vector" d="M11.4247 4.34467C10.7925 4.31458 10.602 4.30825 9 4.30825C7.398 4.30825 7.20825 4.31458 6.576 4.34467C4.9485 4.42304 4.19025 5.23688 4.11675 6.94054C4.0875 7.60871 4.08075 7.809 4.08075 9.5C4.08075 11.191 4.0875 11.3913 4.116 12.0595C4.19025 13.76 4.9455 14.577 6.57525 14.6553C7.2075 14.6854 7.398 14.6925 9 14.6925C10.6027 14.6925 10.7925 14.6862 11.4247 14.6561C13.0522 14.5778 13.8097 13.7623 13.884 12.0603C13.9125 11.3921 13.9185 11.1918 13.9185 9.50079C13.9185 7.80979 13.9125 7.6095 13.884 6.94213C13.8097 5.23767 13.0507 4.42304 11.4247 4.34467ZM9 12.7522C7.29825 12.7522 5.919 11.2963 5.919 9.5C5.919 7.70371 7.299 6.24783 9 6.24783C10.701 6.24783 12.081 7.70371 12.081 9.5C12.081 11.2963 10.7017 12.7522 9 12.7522ZM12.2032 6.87958C11.8057 6.87958 11.4832 6.53917 11.4832 6.11958C11.4832 5.7 11.8057 5.35958 12.2032 5.35958C12.6007 5.35958 12.9233 5.7 12.9233 6.11958C12.9233 6.53917 12.6007 6.87958 12.2032 6.87958ZM11.0002 9.5C11.0002 10.6661 10.1047 11.6114 9 11.6114C7.89525 11.6114 6.99975 10.6661 6.99975 9.5C6.99975 8.33387 7.89525 7.38863 9 7.38863C10.1047 7.38863 11.0002 8.33387 11.0002 9.5ZM14.25 0H3.75C1.67925 0 0 1.77254 0 3.95833V15.0417C0 17.2275 1.67925 19 3.75 19H14.25C16.3215 19 18 17.2275 18 15.0417V3.95833C18 1.77254 16.3215 0 14.25 0ZM14.964 12.1109C14.865 14.4139 13.6508 15.69 11.4742 15.7953C10.8337 15.8262 10.6298 15.8333 9 15.8333C7.37025 15.8333 7.167 15.8262 6.5265 15.7953C4.3455 15.69 3.1365 14.4115 3.036 12.1109C3.00675 11.4356 3 11.2203 3 9.5C3 7.7805 3.00675 7.56437 3.036 6.88908C3.1365 4.58692 4.347 3.30996 6.5265 3.20546C7.167 3.17379 7.37025 3.16667 9 3.16667C10.6298 3.16667 10.8337 3.17379 11.4742 3.20467C13.6552 3.30996 14.8665 4.59088 14.964 6.88829C14.9932 7.56438 15 7.7805 15 9.5C15 11.2203 14.9932 11.4356 14.964 12.1109Z" fill="#222222"/>
</g>
<defs>
<clipPath id="clip0_197_262">
<rect width="18" height="19" fill="white"/>
</clipPath>
</defs>
</svg>
