<svg width="19" height="19" viewBox="0 0 19 19" fill="none" xmlns="http://www.w3.org/2000/svg">
<g id="iconmonstr-twitter-3 1" clip-path="url(#clip0_197_266)">
<path id="Vector" d="M15.0417 0H3.95833C1.77254 0 0 1.77254 0 3.95833V15.0417C0 17.2275 1.77254 19 3.95833 19H15.0417C17.2283 19 19 17.2275 19 15.0417V3.95833C19 1.77254 17.2283 0 15.0417 0ZM14.9316 7.31263C15.0971 10.9678 12.3714 15.0433 7.54538 15.0433C6.07763 15.0433 4.712 14.6134 3.56171 13.8755C4.94079 14.0378 6.31671 13.6555 7.40921 12.7997C6.27158 12.7783 5.31208 12.027 4.98196 10.9947C5.38967 11.0723 5.79025 11.0493 6.15521 10.9503C4.90517 10.6994 4.04304 9.57362 4.07075 8.3695C4.42067 8.56425 4.82204 8.68142 5.24717 8.69487C4.09054 7.92142 3.76279 6.3935 4.44283 5.225C5.72454 6.79725 7.63958 7.83196 9.79925 7.94042C9.42004 6.31512 10.6543 4.75 12.3318 4.75C13.0783 4.75 13.7544 5.06508 14.2278 5.57096C14.82 5.45458 15.3765 5.23846 15.8793 4.94079C15.6845 5.548 15.2728 6.05704 14.7369 6.37846C15.2625 6.31513 15.7637 6.17579 16.2292 5.96917C15.8816 6.4885 15.4407 6.94608 14.9316 7.31263Z" fill="#222222"/>
</g>
<defs>
<clipPath id="clip0_197_266">
<rect width="19" height="19" fill="white"/>
</clipPath>
</defs>
</svg>
